<svg xmlns="http://www.w3.org/2000/svg" viewBox="0 0 200 210" fill="none" aria-hidden="true">
  <!-- Deprecated placeholder: retained for historical compatibility only.
       Neither onboarding nor the App Bar renders this asset. -->
  <ellipse cx="100" cy="195" rx="43" ry="7" fill="#C87A37" opacity=".12"/>
  <path d="M72 173v10m55-10v10" stroke="#BC611C" stroke-width="8" stroke-linecap="round"/>
  <path d="M38 126l-9 10m133-10 9 10" stroke="#DC7C2F" stroke-width="8" stroke-linecap="round"/>
  <path d="M100 41c-10-17 6-24 23-24-2 17-9 26-23 24Z" fill="#77966B"/>
  <path d="M101 45c-2-8-5-13-10-17" stroke="#8A642E" stroke-width="5" stroke-linecap="round"/>
  <path d="M99 40c45-6 73 28 70 71-2 43-24 72-69 73-47 1-70-29-70-70 0-42 25-74 69-74Z" fill="#F5A04D"/>
  <path d="M54 68c7-9 16-14 27-16" stroke="#FFD19E" stroke-width="9" stroke-linecap="round" opacity=".7"/>
  <ellipse cx="77" cy="112" rx="4" ry="5" fill="#613C28"/>
  <ellipse cx="123" cy="112" rx="4" ry="5" fill="#613C28"/>
  <path d="M92 128q8 8 16 0" stroke="#613C28" stroke-width="4" stroke-linecap="round"/>
  <ellipse cx="64" cy="127" rx="9" ry="5" fill="#E98946" opacity=".6"/>
  <ellipse cx="136" cy="127" rx="9" ry="5" fill="#E98946" opacity=".6"/>
</svg>
